<svg id="Layer_1" data-name="Layer 1" xmlns="http://www.w3.org/2000/svg" xmlns:xlink="http://www.w3.org/1999/xlink" viewBox="0 0 290 38">
  <defs>
    <style>.cls-1{fill:none;}.cls-2{clip-path:url(#clip-path);}.cls-3,.cls-4{fill:#ed1c24;}.cls-3{fill-rule:evenodd;}.cls-5{fill:#231f20;}</style>
    <clipPath id="clip-path">
      <rect class="cls-1" y="-3.25" width="351.87" height="41.5"/>
    </clipPath>
  </defs>
  <title>CGC-signature-fr</title>
  <g class="cls-2">
    <g class="cls-2">
      <path class="cls-3" d="M31.79,4s-2,3.79-2.23,4.18-.53.53-.92.26-2.1-1.17-2.1-1.17S28,13.55,28,14.08s-.4.91-.92.53c-.13-.13-2.89-3.27-2.89-3.27s-.65,1.44-.79,1.7-.26.52-.66.39-3-.65-3-.65.93,3.13,1.05,3.53.26.65-.26.91l-.92.39S25,22.33,25.1,22.46s.53.39.26,1.18-.53,1.84-.53,1.84,5-1.06,5.52-1.19,1,.13,1,.66-.3,5.92-.3,5.92h1.58s-.3-5.38-.3-5.92.5-.7,1-.66,5.52,1.19,5.52,1.19-.26-1.06-.53-1.84,0-.92.26-1.18S44,17.61,44,17.61l-.92-.39c-.53-.26-.39-.6-.26-.91s1.05-3.53,1.05-3.53-2.5.52-3,.65-.53-.13-.66-.39-.79-1.7-.79-1.7-2.76,3.14-2.89,3.27c-.53.39-1.05,0-.92-.53s1.45-6.8,1.45-6.8-1.58.91-2.1,1.17-.66.26-.92-.26S31.79,4,31.79,4"/>
      <rect class="cls-4" y="1.65" width="15.9" height="31.57"/>
      <rect class="cls-4" x="47.69" y="1.65" width="15.9" height="31.57"/>
      <path class="cls-5" d="M101.12,5.55A3.4,3.4,0,0,0,97.5,2.8c-3.08,0-4.38,2.53-4.38,5.23,0,3,1.3,5.41,4.4,5.41,2.26,0,3.57-1.59,3.73-3.73H103c-.33,3.22-2.34,5.18-5.59,5.18-4,0-6-3-6-6.73s2.14-6.8,6.12-6.8c2.7,0,4.92,1.45,5.32,4.2Z"/>
      <path class="cls-5" d="M108.89,5c3,0,4.54,2.15,4.54,4.9s-1.58,4.89-4.54,4.89-4.54-2.15-4.54-4.89S105.92,5,108.89,5m0,8.43c1.61,0,2.91-1.27,2.91-3.53s-1.3-3.55-2.91-3.55S106,7.63,106,9.91s1.3,3.53,2.91,3.53"/>
      <path class="cls-5" d="M115.25,5.23h1.45V6.6h0a3.45,3.45,0,0,1,3-1.59,2.48,2.48,0,0,1,2.57,1.59A3.46,3.46,0,0,1,125.25,5c1.87,0,3.11.78,3.11,2.71v6.86h-1.54V8.45c0-1.16-.31-2.08-1.81-2.08a2.27,2.27,0,0,0-2.44,2.39v5.83H121V8.45c0-1.21-.38-2.08-1.76-2.08a2.52,2.52,0,0,0-2.5,2.39v5.83h-1.54Z"/>
      <path class="cls-5" d="M130.69,5.23h1.45V6.6h0a3.45,3.45,0,0,1,3-1.59,2.48,2.48,0,0,1,2.57,1.59A3.46,3.46,0,0,1,140.7,5c1.87,0,3.11.78,3.11,2.71v6.86h-1.54V8.45c0-1.16-.31-2.08-1.81-2.08A2.27,2.27,0,0,0,138,8.76v5.83h-1.54V8.45c0-1.21-.38-2.08-1.76-2.08a2.52,2.52,0,0,0-2.5,2.39v5.83h-1.54Z"/>
      <path class="cls-5" d="M147.77,3.54h-1.54V1.66h1.54Zm-1.54,1.68h1.54v9.36h-1.54Z"/>
      <path class="cls-5" d="M151.1,11.63c.05,1.38,1.25,1.81,2.52,1.81,1,0,2.26-.22,2.26-1.39s-1.52-1.39-3.06-1.74-3.06-.85-3.06-2.64S151.63,5,153.25,5c2.06,0,3.71.65,3.84,2.93h-1.54c-.11-1.2-1.16-1.58-2.17-1.58s-2,.25-2,1.2c0,1.1,1.63,1.28,3.06,1.63s3.06.85,3.06,2.66c0,2.23-2.08,3-4,3-2.1,0-3.87-.85-4-3.17Z"/>
      <path class="cls-5" d="M160.16,11.63c.05,1.38,1.25,1.81,2.52,1.81,1,0,2.26-.22,2.26-1.39s-1.52-1.39-3.06-1.74-3.06-.85-3.06-2.64S160.68,5,162.31,5c2.06,0,3.71.65,3.84,2.93h-1.54c-.11-1.2-1.16-1.58-2.17-1.58s-2,.25-2,1.2c0,1.1,1.63,1.28,3.06,1.63s3.06.85,3.06,2.66c0,2.23-2.08,3-4,3-2.1,0-3.87-.85-4-3.17Z"/>
      <path class="cls-5" d="M169.9,3.54h-1.54V1.66h1.54Zm-1.54,1.68h1.54v9.36h-1.54Z"/>
      <path class="cls-5" d="M176.32,5c3,0,4.54,2.15,4.54,4.9s-1.57,4.89-4.54,4.89-4.54-2.15-4.54-4.89S173.36,5,176.32,5m0,8.43c1.61,0,2.91-1.27,2.91-3.53s-1.3-3.55-2.91-3.55-2.91,1.27-2.91,3.55,1.3,3.53,2.91,3.53"/>
      <path class="cls-5" d="M182.68,5.23h1.45V6.71h0a3.26,3.26,0,0,1,3-1.7c2.46,0,3.22,1.41,3.22,3.42v6.15h-1.54V8.25A1.76,1.76,0,0,0,187,6.37a2.63,2.63,0,0,0-2.77,2.93v5.28h-1.54Z"/>
      <path class="cls-5" d="M204.14,8.23a2.18,2.18,0,0,0-2.32-1.86c-2.23,0-2.91,1.76-2.91,3.66,0,1.72.78,3.42,2.73,3.42a2.42,2.42,0,0,0,2.57-2.28h1.57a3.89,3.89,0,0,1-4.13,3.64c-2.86,0-4.38-2-4.38-4.78s1.45-5,4.42-5c2.12,0,3.82,1,4,3.22Z"/>
      <path class="cls-5" d="M215.8,14.55a2.07,2.07,0,0,1-1.1.25c-.8,0-1.3-.43-1.3-1.45a4.16,4.16,0,0,1-3.3,1.45c-1.7,0-3.1-.76-3.1-2.62,0-2.12,1.58-2.57,3.17-2.88s3.15-.22,3.15-1.37c0-1.34-1.11-1.56-2.08-1.56-1.3,0-2.26.4-2.33,1.77h-1.54c.09-2.32,1.88-3.13,4-3.13,1.68,0,3.51.38,3.51,2.57v4.81c0,.72,0,1.05.49,1.05a1.31,1.31,0,0,0,.47-.09Zm-2.5-4.8a7.89,7.89,0,0,1-2.79.63c-1,.18-1.88.54-1.88,1.68s.87,1.38,1.81,1.38c2,0,2.86-1.27,2.86-2.12Z"/>
      <path class="cls-5" d="M217.23,5.23h1.45V6.71h0a3.26,3.26,0,0,1,3-1.7C224.22,5,225,6.42,225,8.43v6.15h-1.54V8.25a1.76,1.76,0,0,0-1.9-1.88,2.63,2.63,0,0,0-2.77,2.93v5.28h-1.54Z"/>
      <path class="cls-5" d="M235.59,14.55a2.08,2.08,0,0,1-1.1.25c-.8,0-1.3-.43-1.3-1.45a4.16,4.16,0,0,1-3.29,1.45c-1.7,0-3.1-.76-3.1-2.62,0-2.12,1.57-2.57,3.17-2.88s3.15-.22,3.15-1.37c0-1.34-1.1-1.56-2.08-1.56-1.3,0-2.26.4-2.34,1.77h-1.54c.09-2.32,1.88-3.13,4-3.13,1.68,0,3.51.38,3.51,2.57v4.81c0,.72,0,1.05.49,1.05a1.33,1.33,0,0,0,.47-.09Zm-2.5-4.8a7.9,7.9,0,0,1-2.79.63c-1,.18-1.88.54-1.88,1.68s.87,1.38,1.81,1.38c2,0,2.86-1.27,2.86-2.12Z"/>
      <path class="cls-5" d="M245.39,14.58h-1.54V13.32h0a3.15,3.15,0,0,1-3,1.48c-2.88,0-4.31-2.28-4.31-4.92S237.93,5,240.79,5a3.59,3.59,0,0,1,3,1.47h0V1.66h1.54ZM241,13.44c2.06,0,2.86-1.77,2.86-3.53s-.83-3.55-3-3.55-2.8,1.79-2.8,3.62.91,3.46,2.9,3.46"/>
      <path class="cls-5" d="M249.39,3.54h-1.54V1.66h1.54Zm-1.54,1.68h1.54v9.36h-1.54Z"/>
      <path class="cls-5" d="M259.77,11.62a3.77,3.77,0,0,1-4,3.19c-3,0-4.4-2.06-4.49-4.92S253.13,5,255.68,5c3.31,0,4.33,3.1,4.24,5.36h-7a2.76,2.76,0,0,0,2.92,3.08,2.26,2.26,0,0,0,2.43-1.83ZM258.28,9a2.69,2.69,0,0,0-5.38,0Z"/>
      <path class="cls-5" d="M261.51,5.23H263V6.71h0A3.26,3.26,0,0,1,266,5c2.46,0,3.22,1.41,3.22,3.42v6.15h-1.54V8.25a1.76,1.76,0,0,0-1.9-1.88A2.63,2.63,0,0,0,263,9.3v5.28h-1.54Z"/>
      <path class="cls-5" d="M271.58,5.23H273V6.71h0a3.26,3.26,0,0,1,3-1.7c2.46,0,3.22,1.41,3.22,3.42v6.15h-1.54V8.25a1.76,1.76,0,0,0-1.9-1.88,2.63,2.63,0,0,0-2.77,2.93v5.28h-1.54Z"/>
      <path class="cls-5" d="M289.63,11.62a3.77,3.77,0,0,1-4,3.19c-3,0-4.4-2.06-4.49-4.92S283,5,285.54,5c3.31,0,4.33,3.1,4.24,5.36h-7a2.76,2.76,0,0,0,2.92,3.08,2.26,2.26,0,0,0,2.43-1.83ZM288.14,9a2.69,2.69,0,0,0-5.38,0Z"/>
      <path class="cls-5" d="M100.14,33.22H98.6V32h0a3.15,3.15,0,0,1-3,1.48c-2.88,0-4.31-2.28-4.31-4.92s1.41-4.87,4.27-4.87a3.58,3.58,0,0,1,3,1.47h0V20.3h1.54ZM95.8,32.08c2.06,0,2.86-1.77,2.86-3.53s-.83-3.55-3-3.55S92.9,26.8,92.9,28.62s.91,3.46,2.9,3.46"/>
      <path class="cls-5" d="M110.5,30.25a3.77,3.77,0,0,1-4,3.19c-3,0-4.4-2.06-4.49-4.92s1.85-4.87,4.4-4.87c3.31,0,4.33,3.1,4.24,5.36h-7a2.76,2.76,0,0,0,2.91,3.08A2.26,2.26,0,0,0,109,30.25ZM109,27.65a2.69,2.69,0,0,0-5.38,0Z"/>
      <path class="cls-5" d="M113.18,30.27c.05,1.38,1.25,1.81,2.52,1.81,1,0,2.26-.22,2.26-1.39s-1.52-1.39-3.06-1.74-3.06-.85-3.06-2.64,1.86-2.66,3.49-2.66c2.06,0,3.71.65,3.84,2.93h-1.54c-.11-1.2-1.16-1.58-2.17-1.58s-2,.25-2,1.2c0,1.1,1.63,1.28,3.06,1.63s3.06.85,3.06,2.66c0,2.22-2.08,3-4,3-2.1,0-3.87-.85-4-3.17Z"/>
      <path class="cls-5" d="M134.4,32.43c0,3-1.39,4.6-4.34,4.6-1.76,0-3.78-.71-3.87-2.75h1.54c.07,1.12,1.41,1.52,2.43,1.52,2,0,2.81-1.45,2.81-3.55v-.62h0a3.12,3.12,0,0,1-2.91,1.7c-2.79,0-4.18-2.19-4.18-4.74,0-2.21,1.09-4.94,4.33-4.94a3.06,3.06,0,0,1,2.79,1.56h0V23.86h1.45Zm-1.52-4.07c0-1.65-.72-3.35-2.66-3.35s-2.77,1.61-2.77,3.4.62,3.56,2.64,3.56,2.79-1.86,2.79-3.62"/>
      <path class="cls-5" d="M136.67,23.86h1.45v2h0a3.4,3.4,0,0,1,3.44-2.19v1.63c-2.48,0-3.38,1.41-3.38,3.78v4.16h-1.54Z"/>
      <path class="cls-5" d="M151,33.19a2.09,2.09,0,0,1-1.1.25c-.8,0-1.3-.44-1.3-1.45a4.16,4.16,0,0,1-3.29,1.45c-1.7,0-3.1-.76-3.1-2.63,0-2.12,1.58-2.57,3.17-2.88s3.15-.22,3.15-1.38c0-1.34-1.1-1.56-2.08-1.56-1.3,0-2.26.4-2.34,1.77h-1.54c.09-2.32,1.88-3.13,4-3.13,1.68,0,3.51.38,3.51,2.57V31c0,.72,0,1,.49,1A1.31,1.31,0,0,0,151,32Zm-2.5-4.8a7.93,7.93,0,0,1-2.79.63c-1,.18-1.88.54-1.88,1.68s.87,1.37,1.81,1.37c2,0,2.86-1.27,2.86-2.12Z"/>
      <path class="cls-5" d="M154.11,22.18h-1.54V20.3h1.54Zm-1.54,1.68h1.54v9.36h-1.54Z"/>
      <path class="cls-5" d="M156.5,23.86h1.45v1.48h0a3.26,3.26,0,0,1,3-1.7c2.46,0,3.22,1.41,3.22,3.42v6.15h-1.54V26.89a1.76,1.76,0,0,0-1.9-1.88A2.63,2.63,0,0,0,158,27.94v5.28H156.5Z"/>
      <path class="cls-5" d="M167.51,30.27c.05,1.38,1.25,1.81,2.52,1.81,1,0,2.26-.22,2.26-1.39s-1.52-1.39-3.06-1.74-3.06-.85-3.06-2.64,1.86-2.66,3.49-2.66c2.06,0,3.71.65,3.84,2.93H172c-.11-1.2-1.16-1.58-2.17-1.58s-2,.25-2,1.2c0,1.1,1.63,1.28,3.06,1.63s3.06.85,3.06,2.66c0,2.22-2.08,3-4,3-2.1,0-3.87-.85-4-3.17Z"/>
    </g>
  </g>
</svg>
