<svg version="1.1" id="Layer_1" xmlns:x="ns_extend;" xmlns:i="ns_ai;" xmlns:graph="ns_graphs;" xmlns="http://www.w3.org/2000/svg" xmlns:xlink="http://www.w3.org/1999/xlink" x="0px" y="0px" viewBox="0 0 1372.2 162" style="enable-background:new 0 0 1372.2 162;" xml:space="preserve">
 <style type="text/css">
  .st0{fill-rule:evenodd;clip-rule:evenodd;fill:#0E497B;}
 </style>
 <metadata>
  <sfw xmlns="ns_sfw;">
   <slices>
   </slices>
   <sliceSourceBounds bottomLeftOrigin="true" height="162" width="1372.2" x="-1040.5" y="0.3">
   </sliceSourceBounds>
  </sfw>
 </metadata>
 <desc>
  Created with Sketch.
 </desc>
 <g id="Symbols">
  <g id="NAV-0614" transform="translate(-61.000000, -67.000000)">
   <g id="NEW-NAV" transform="translate(1.000000, -2.000000)">
    <g>
     <g id="Group-2" transform="translate(60.000000, 0.000000)">
      <g id="NW-Logo-grey" transform="translate(0.000000, 69.000000)">
       <g id="NW-Logo">
        <polygon id="Fill-1" class="st0" points="228.5,78.2 218.4,78.2 218.4,71.1 242.6,71.1 242.6,78.2 285.1,124.7 285.1,78.2 
								274.4,78.2 274.4,71.1 304.1,71.1 304.1,78.2 293.6,78.2 293.6,146.5 285.8,146.5 236.9,93.9 236.9,139.4 247.3,139.4 
								247.3,146.5 218.4,146.5 218.4,139.4 228.5,139.4 							">
        </polygon>
        <g id="Group-41" transform="translate(0.000000, 0.278910)">
         <path id="Fill-2" class="st0" d="M305.9,119.4c0,11.7,7.8,28.3,30.2,28.3c21,0,30.1-15,30.1-28.3c0-14-9.9-28.4-29.9-28.4
									C314.3,91,305.9,106.8,305.9,119.4 M322,119.1c0-12.7,4.2-22.4,14.1-22.4c9.2,0,14,8.5,14,23.1c0,13.8-5.5,22-14,22
									C327.2,141.9,322,133.5,322,119.1">
         </path>
         <path id="Fill-4" class="st0" d="M379.8,98.3h-9.4v-5.8h23.9v9.1h0.2c2.3-3.4,4.4-6.1,6.6-7.8c2.1-1.9,4.4-2.8,6.7-2.8
									c2.6,0,6.2,2.3,8.7,5.3c-0.6,4.9-2.7,10.9-5.3,15.2c-3-5.5-5.5-7.7-9-7.7c-3,0-4.5,1.6-7.8,5.3v31.4h9.3v5.8h-33.2v-5.8h9.4
									V98.3z">
         </path>
         <path id="Fill-6" class="st0" d="M419.9,99.5l22.5-21.6v14.6h15.1v7h-15.1v30.7c0,6.9,2.4,11.6,7.2,11.6c4.3,0,6.9-4,9-4
									c1,0,1.6,0.5,1.6,1.6c0,2.6-4.9,8.3-16,8.3c-11.2,0-16.2-5.6-16.2-18.1V99.5H419.9z">
         </path>
         <path id="Fill-8" class="st0" d="M488.7,98.9c6.7-4.7,13.5-7.9,19.1-7.9c8.6,0,14.8,6.7,14.8,15.9v33.6h9.4v5.8h-31.7v-5.8
									h7.8v-30.7c0-6.3-2.9-9.7-8.2-9.7c-3,0-7,1.6-11.3,4.4v36h7.7v5.8h-31.8v-5.8h9.6V69.2h-9.6v-5.8h24.1V98.9z">
         </path>
         <polygon id="Fill-10" class="st0" points="528.2,98.3 528.2,92.5 557.9,92.5 557.9,98.3 550.6,98.3 562.7,125.2 572.6,98.3 
									565,98.3 565,92.5 592.5,92.5 592.5,98.3 585.6,98.3 597.8,125.2 607.7,98.3 599.5,98.3 599.5,92.5 621.7,92.5 621.7,98.3 
									614.1,98.3 595.5,147.4 592.5,147.4 574.7,109.2 560.4,147.4 557.9,147.4 535.1,98.3 								">
         </polygon>
         <path id="Fill-12" class="st0" d="M672.5,115.9C670.9,100.7,661.3,91,648,91c-14.6,0-24.6,11.2-24.6,27.3
									c0,12.7,6.7,29.4,28.9,29.4c7.7,0,13.2-1.5,20.3-5.5l1-7.1c-4.2,3.3-11.4,5.6-17.1,5.6c-10.7,0-17.8-10.1-17.8-24.8H672.5z
									 M638.7,110.1c0.1-6.7,3-13.3,8.9-13.3c5.2,0,8.8,4.8,10,13.3H638.7z">
         </path>
         <path id="Fill-14" class="st0" d="M682.1,130.4h3.6c2.3,7.3,7.1,11.5,13.3,11.5c4.1,0,7.4-2.1,7.4-6.4
									c0-8.7-24.9-11.1-24.9-28.1c0-9.3,7.9-16.5,18.2-16.5c3.8,0,6.8,0.9,10.3,3.2l1-2.8h4.1v14.3h-4.1c-2.2-6.4-4.9-8.9-9.8-8.9
									c-4.6,0-7.4,2-7.4,5.1c0,10.9,25.5,10.8,25.5,29.1c0,9.9-7.9,16.7-19.1,16.7c-4.7,0-9.1-1-13.2-3.1l-0.6,2.6h-4.4V130.4z">
         </path>
         <path id="Fill-16" class="st0" d="M723.2,99.5l22.5-21.6v14.6h15.1v7h-15.1v30.7c0,6.9,2.4,11.6,7.2,11.6c4.3,0,6.9-4,9-4
									c1,0,1.6,0.5,1.6,1.6c0,2.6-4.9,8.3-16,8.3c-11.2,0-16.3-5.6-16.3-18.1V99.5H723.2z">
         </path>
         <path id="Fill-18" class="st0" d="M814.8,115.9c-1.6-15.2-11.2-24.9-24.5-24.9c-14.6,0-24.7,11.2-24.7,27.3
									c0,12.7,6.7,29.4,28.9,29.4c7.7,0,13.2-1.5,20.2-5.5l1-7.1c-4.2,3.3-11.5,5.6-17.1,5.6c-10.7,0-17.7-10.1-17.7-24.8H814.8z
									 M781,110.1c0.1-6.7,3-13.3,8.9-13.3c5.2,0,8.8,4.8,10,13.3H781z">
         </path>
         <path id="Fill-20" class="st0" d="M830.8,98.3h-9.5v-5.8h24v9.1h0.2c2.3-3.4,4.4-6.1,6.6-7.8c2.1-1.9,4.4-2.8,6.7-2.8
									c2.6,0,6.3,2.3,8.6,5.3c-0.6,4.9-2.6,10.9-5.3,15.2c-3-5.5-5.5-7.7-9.1-7.7c-3,0-4.5,1.6-7.7,5.3v31.4h9.3v5.8h-33.3v-5.8
									h9.5V98.3z">
         </path>
         <path id="Fill-22" class="st0" d="M882.5,98.3h-9.4v-5.8h23.9V99c7.2-4.9,12.3-8,19-8c9.4,0,15,6.2,15,16.5v33h9.4v5.8
									h-31.7v-5.8h7.8v-32.1c0-5.4-3.6-8.3-7.7-8.3c-3.5,0-6.9,1.3-11.8,4.3v36.1h7.5v5.8h-31.4v-5.8h9.4V98.3z">
         </path>
         <polygon id="Fill-24" class="st0" points="982.7,77.9 972.6,77.9 972.6,70.8 1000,70.8 1000,77.9 1021.5,122.3 1042.7,77.9 
									1042.7,70.8 1071,70.8 1071,77.9 1060.9,77.9 1060.9,139.2 1071,139.2 1071,146.2 1035.1,146.2 1035.1,139.2 1045.7,139.2 
									1045.7,91.6 1045.4,91.6 1019.6,146.2 1016.7,146.2 991.5,93.7 991.3,93.7 991.3,139.2 1001.5,139.2 1001.5,146.2 
									972.6,146.2 972.6,139.2 982.7,139.2 								">
         </polygon>
         <path id="Fill-26" class="st0" d="M1139.2,140.4v5.8h-23.9v-5.1c-7.1,4.9-13.4,6.6-18.5,6.6c-11.8,0-15.3-7.2-15.3-15.1
									V98.3h-9.5v-5.8h23.9v39c0,5,2.6,8.7,7.3,8.7c3.3,0,6.7-1.4,12.1-4.7V98.3h-9.3v-5.8h23.8v47.9H1139.2z">
         </path>
         <path id="Fill-28" class="st0" d="M1140.5,99.5l22.6-21.6v14.6h15.1v7H1163v30.7c0,6.9,2.4,11.6,7.2,11.6c4.3,0,6.9-4,8.9-4
									c1,0,1.6,0.5,1.6,1.6c0,2.6-4.9,8.3-16,8.3c-11.2,0-16.3-5.6-16.3-18.1V99.5H1140.5z">
         </path>
         <path id="Fill-30" class="st0" d="M1250.1,140.4v5.8h-23.9v-5.1c-7.1,4.9-13.3,6.6-18.5,6.6c-11.8,0-15.4-7.2-15.4-15.1
									V98.3h-9.4v-5.8h23.9v39c0,5,2.7,8.7,7.3,8.7c3.3,0,6.6-1.4,12.1-4.7V98.3h-9.3v-5.8h23.8v47.9H1250.1z">
         </path>
         <path id="Fill-32" class="st0" d="M1305.7,138.5c-1.5,0.8-2.7,1-4.1,1c-3.3,0-6.3-2.5-6.3-6.9v-23.9
									c0-10.3-7.7-17.8-18.1-17.8c-7.1,0-15.4,3.6-21.7,9.2l1,4.4c6.4-3.9,10.8-5.4,15-5.4c6,0,9.3,3.6,9.3,10.6v6.3l-12.9,3.3
									c-9.8,2.5-14,6.5-14,13.8c0,8.4,5.3,14.6,12.6,14.6c4.8,0,9.5-2,15.6-6.6c1.6,4,5.9,6.6,10.9,6.6c4.5,0,8.6-1.2,12.7-3.7
									V138.5z M1280.9,122.2v12.9c-2.6,2.1-5.5,3.6-7.8,3.6c-3.3,0-5.8-2.9-5.8-6.6C1267.3,127.2,1270.2,124.7,1280.9,122.2
									L1280.9,122.2z">
         </path>
         <polygon id="Fill-34" class="st0" points="1319.1,69.2 1309.8,69.2 1309.8,63.4 1333.6,63.4 1333.6,140.4 1342.9,140.4 
									1342.9,146.2 1309.8,146.2 1309.8,140.4 1319.1,140.4 								">
         </polygon>
         <g id="Group-38">
          <path id="Fill-36" class="st0" d="M46.7,72.9c14.2,0,26.6,22.8,28.7,58.3l0.4,0c2-7.1,2.8-14.7,2.6-22.2
										c0-25.9-12.2-48.7-28.6-48.7c-15.4,0-16.8,12.8-13.1,18.4C38.2,76.7,40.9,72.9,46.7,72.9L46.7,72.9z M62.4,137.3
										c0.8-3.3,1.2-5.8,1.2-10.3c0-16.1-9.7-42.7-28.3-42.7c-14.2,0-16.1,13.5-11.6,17.9c0.9-3,4.1-7.1,9.8-7.1
										c15,0,26.2,23.7,28.5,42.2H62.4z M155.6,78.7c1.5-2.1,2.1-4.7,2.1-6.5c0-6.2-5.8-12.1-14.3-12.1
										c-24.7,0-33.9,43.2-26.8,70.8h0.3c2.4-37.9,14.6-58.2,28.4-58.2C152.5,72.6,155,76.9,155.6,78.7L155.6,78.7z M156.5,84.5
										c-23.4,0-31.9,39.2-27.2,52.9h0.3c2.7-19.9,13.5-42.1,28-42.1c7.8,0,10,4.9,10.3,7C172.9,97,169.9,84.5,156.5,84.5
										L156.5,84.5z M100.3,150.5c-14,0-28.5,3.3-40.4,10.8l0.2,0.4c5.8-0.9,19.9-2.5,37.2-2.5c19.1,0,26,2.5,29.1,2.5
										c2.2,0,3.1-1.2,3.1-3.2C129.5,153,115.6,150.5,100.3,150.5L100.3,150.5z M100.3,135.9c-11.9,0-28.3,3.1-40.4,10.8l0.2,0.4
										c4.8-0.7,20.3-2.7,37.8-2.7c16.6,0,26.1,2.7,28.6,2.7c2.2,0,3.1-1.2,3.1-3.2C129.5,138.3,115.6,135.9,100.3,135.9
										L100.3,135.9z M155.6,41.9c-1.8,0.3-4.3,3-4.3,7c0,4.6,3.4,13.8,16.5,13.8c13.5,0,22.7-10,22.7-23.8c0-13.5-9.9-26-31.5-26
										c-25.8,0-58.9,23-58.9,78.9c0,10.7,1.3,22.3,3.9,34.9h0.5c0-68.7,25.7-101.1,53.6-101.1c11.9,0,18.4,7.6,18.4,15.4
										c0,7.2-4.3,12.4-11.2,12.4C156.9,53.6,154.3,46.3,155.6,41.9L155.6,41.9z M34.9,50.3c-1,1.7-3.9,4.3-9.2,4.3
										c-6.5,0-11.8-5.3-11.8-13c0-6.8,6-13.8,16.6-13.8c26.3,0,57.2,37.9,57.6,86.1c0,3-0.2,8.4-0.7,12.8l0.4,0.1
										c2.8-8.3,5-21.2,5-30.3c0-42-28.7-82.4-62.6-82.4C10.2,14.2,0,27.5,0,39.2c0,13.3,7.8,23.4,20,23.4
										C29.6,62.6,34.9,55.6,34.9,50.3L34.9,50.3z M31.3-0.3c-2.6,0-4.1,1.4-4.1,3.3c0,2.4,1.6,3.6,4.6,4.9
										c9.4,3.8,27.3,6.1,47.5,6.2c35.8,0,72.4-5.1,88.7-11.6L168,2C154.8,2.9,132,4.4,95.7,4.4C46.3,4.4,35.9-0.3,31.3-0.3
										L31.3-0.3z M59.8,18.5l0,0.4c4.2,1.6,23.9,10.2,32.6,42.6c0.5,1.9,1.5,2.7,2.8,2.7c2.1,0,3-1.5,3-4.4
										c0-15.2-8.2-28.5-15.5-34.4C75.3,19.5,65.6,18.1,59.8,18.5L59.8,18.5z M108.3,23.3c6.2-6.6,15.3-9,24.9-8.1l0,0.4
										c-3.1,0.9-10.7,3.6-18.2,11.6c-6.2,6.7-10.6,14.7-12.7,21.8C99.8,35.6,104.2,27.7,108.3,23.3L108.3,23.3z">
          </path>
         </g>
         <path id="Fill-39" class="st0" d="M1360.5,70.5h2.3c0.8,0,2-0.2,2-1.5c0-0.6-0.4-1.4-1.8-1.4h-2.5V70.5z M1360.5,76.5h-2.2
									V65.9h4.9c0.6,0,4,0,4,3.1c0,2-1.4,2.6-2,2.8l2,4.6h-2.4l-1.7-4.2h-2.6V76.5z M1362.4,79.3c4.4,0,8.1-3.6,8.1-8.1
									c0-4.5-3.6-8.1-8.1-8.1c-4.4,0-8.1,3.6-8.1,8.1C1354.3,75.6,1357.9,79.3,1362.4,79.3L1362.4,79.3z M1362.4,61.3
									c5.4,0,9.8,4.3,9.8,9.9c0,5.4-4.4,9.8-9.8,9.8c-5.4,0-9.8-4.4-9.8-9.8C1352.5,65.7,1357,61.3,1362.4,61.3L1362.4,61.3z">
         </path>
        </g>
       </g>
      </g>
     </g>
    </g>
   </g>
  </g>
 </g>
</svg>
