<?xml version="1.0" encoding="utf-8"?>
<!-- Generator: Adobe Illustrator 26.5.0, SVG Export Plug-In . SVG Version: 6.00 Build 0)  -->
<svg version="1.1" id="Layer_1" xmlns="http://www.w3.org/2000/svg" xmlns:xlink="http://www.w3.org/1999/xlink" x="0px" y="0px"
	 viewBox="20 10 340 80" style="enable-background:new 0 0 380.23 100.21;" xml:space="preserve">
<style type="text/css">
	.st0{fill:#78BB43;}
	.st11{fill:#F9A11E;}
	.st2{fill:#789DD2;}
	.st3{fill:#232F64;}
</style>
<g>
	<g>
		<polygon class="st0" points="81.28,20.69 66.52,20.73 62.84,24.43 62.88,39.19 44.37,20.79 29.61,20.83 25.93,24.53 26.07,76.2 
			29.78,79.88 44.54,79.84 48.22,76.14 48.18,61.38 66.68,79.77 81.44,79.73 85.12,76.03 84.98,24.37 		"/>
		<polygon class="st11" points="107.27,79.66 122.04,79.62 125.71,75.92 125.68,64.85 144.09,46.34 144.03,24.2 140.32,20.52 
			125.56,20.56 121.88,24.26 121.9,31.64 114.54,39.05 107.14,31.69 107.12,24.31 103.42,20.63 88.66,20.67 84.98,24.37 
			85.04,46.51 103.54,64.91 103.57,75.98 		"/>
		<polygon class="st2" points="191.99,20.38 155.09,20.48 144.05,31.58 144.15,68.49 155.25,79.53 192.15,79.42 203.19,68.32 
			203.16,57.25 199.46,53.57 181.01,53.62 181.02,57.31 166.26,57.35 166.22,42.59 180.98,42.55 180.99,46.2 199.44,46.14 
			203.12,42.49 203.09,31.42 		"/>
		<path class="st2" d="M200.55,20.36l0.81,2.25l0.79-2.25l0.9,0l0.01,3.14l-0.58,0l-0.01-2.54l-0.85,2.54h-0.5l-0.89-2.53l0.01,2.53
			l-0.58,0l-0.01-3.14L200.55,20.36z M196.45,20.89v-0.53l2.67-0.01l0,0.53l-1.03,0l0.01,2.62l-0.62,0l-0.01-2.62L196.45,20.89z"/>
	</g>
	<path class="st3" d="M222.74,32.66l4.56-0.01c2.11-0.01,3.65-0.89,3.64-3.26c-0.01-2.44-1.58-3.42-3.66-3.42l-4.56,0.01
		L222.74,32.66z M215.92,20.56l12.37-0.03c4.85-0.01,9.42,2.2,9.44,8.37c0.02,6.46-3.66,8.98-9.39,9l-5.58,0.02l0.02,8.68
		l-6.79,0.02L215.92,20.56z"/>
	<path class="st3" d="M258.82,46.49l-6.02,0.02l-0.01-2.59h-0.07c-1.16,1.94-3.57,3.15-5.76,3.15c-5.44,0.01-7.01-3.12-7.03-8.08
		l-0.03-11.38l6.2-0.02l0.03,10.98c0.01,2.52,1.1,3.39,3.07,3.38c1.35,0,3.39-0.88,3.38-4.24l-0.03-10.14l6.2-0.02L258.82,46.49z"/>
	<path class="st3" d="M268.21,36.8c0.01,3.32,0.96,5.47,3.77,5.46c2.77-0.01,3.72-2.89,3.71-5.48c-0.01-2.41-0.96-5.07-3.7-5.06
		C270.31,31.72,268.2,32.9,268.21,36.8 M262.18,20.43l6.2-0.02l0.02,9.19h0.07c1.27-1.76,3.06-2.64,5.39-2.64
		c5.36-0.01,8,4.65,8.02,9.57c0.01,5.33-2.49,10.44-8.44,10.46c-2.19,0.01-4.01-0.94-5.22-2.72h-0.07l0.01,2.19l-5.91,0.02
		L262.18,20.43z"/>
	
		<rect x="284.69" y="20.36" transform="matrix(1 -2.606127e-03 2.606127e-03 1 -0.086 0.7501)" class="st3" width="6.2" height="26.05"/>
	<path class="st3" d="M294.74,27.46l6.2-0.02l0.05,18.94l-6.2,0.02L294.74,27.46z M300.94,25.07l-6.2,0.02l-0.01-4.74l6.2-0.02
		L300.94,25.07z"/>
	<path class="st3" d="M316.94,34.33c-0.04-1.61-1.47-2.73-3.04-2.73c-3.47,0.01-4,2.97-4,5.6c0.01,2.44,1.07,4.96,3.7,4.95
		c2.15-0.01,3.25-1.25,3.53-3.26l6.02-0.02c-0.53,5.07-4.47,8-9.5,8.02c-5.69,0.02-9.93-3.88-9.95-9.68
		c-0.02-6.02,3.8-10.33,9.89-10.35c4.71-0.01,8.91,2.46,9.36,7.45L316.94,34.33z"/>
	<path class="st3" d="M222.62,69.85c0.15,3.06,2.05,4.04,4.94,4.04c2.04-0.01,4.16-0.74,4.15-2.67c-0.01-2.3-3.73-2.73-7.49-3.78
		c-3.73-1.05-7.63-2.72-7.65-7.49c-0.01-5.69,5.71-7.93,10.59-7.95c5.18-0.01,10.41,2.49,10.46,8.36l-6.79,0.02
		c0.1-2.37-2.12-3.13-4.2-3.13c-1.46,0-3.28,0.52-3.28,2.24c0.01,2.01,3.77,2.36,7.56,3.41c3.76,1.05,7.56,2.79,7.57,7.49
		c0.02,6.6-5.6,8.74-11.32,8.75c-5.98,0.02-11.28-2.59-11.34-9.27L222.62,69.85z"/>
	<path class="st3" d="M253,66.52c-0.04-1.6-1.47-2.73-3.04-2.73c-3.47,0.01-4,2.97-4,5.6c0.01,2.44,1.07,4.96,3.7,4.95
		c2.15-0.01,3.25-1.25,3.53-3.26l6.02-0.02c-0.53,5.07-4.47,8-9.5,8.02c-5.69,0.02-9.93-3.88-9.95-9.68
		c-0.02-6.02,3.8-10.34,9.89-10.35c4.71-0.01,8.91,2.46,9.36,7.45L253,66.52z"/>
	<path class="st3" d="M261.54,52.45l6.2-0.02l0.03,9.7h0.07c0.94-1.94,3.5-3.15,5.76-3.15c6.31-0.02,6.84,4.58,6.84,7.31l0.03,12.15
		l-6.2,0.02l-0.02-9.16c-0.01-2.59,0.28-5.22-3.12-5.21c-2.33,0.01-3.35,1.98-3.35,4.06l0.03,10.33l-6.2,0.02L261.54,52.45z"/>
	<path class="st3" d="M292.9,74.22c2.88-0.01,3.79-2.86,3.78-5.27c-0.01-2.41-0.93-5.29-3.81-5.28c-2.88,0.01-3.75,2.89-3.74,5.3
		C289.13,71.38,290.02,74.23,292.9,74.22 M292.86,58.93c5.87-0.02,10.01,4.31,10.03,10.01c0.01,5.69-4.1,10.01-9.97,10.02
		c-5.87,0.02-9.97-4.28-9.99-9.97S286.98,58.95,292.86,58.93"/>
	<path class="st3" d="M314.46,74.16c2.88-0.01,3.79-2.86,3.78-5.27c-0.01-2.41-0.93-5.29-3.81-5.28c-2.88,0.01-3.75,2.89-3.74,5.3
		C310.7,71.32,311.58,74.17,314.46,74.16 M314.42,58.87c5.87-0.02,10.01,4.31,10.03,10c0.02,5.69-4.1,10.01-9.97,10.02
		c-5.87,0.02-9.97-4.28-9.99-9.97C304.47,63.24,308.54,58.89,314.42,58.87"/>
	
		<rect x="327.17" y="52.26" transform="matrix(1 -2.606655e-03 2.606655e-03 1 -0.1691 0.8611)" class="st3" width="6.2" height="26.05"/>
	<path class="st3" d="M341.85,72.04c0,0.95,0.41,1.64,1.03,2.11c0.58,0.44,1.43,0.65,2.3,0.65c1.2,0,2.92-0.52,2.91-2.01
		c0-1.46-1.94-1.75-3.03-2c-3.91-0.97-8.8-1.07-8.81-6.18c-0.01-4.56,4.91-5.81,8.63-5.83c4.16-0.01,8.5,1.18,8.74,6.1l-5.73,0.02
		c0-0.8-0.29-1.31-0.81-1.64c-0.51-0.33-1.2-0.47-1.97-0.47c-1.02,0-2.66,0.12-2.66,1.43c0.01,1.79,4.17,2.11,7.01,2.72
		c3.83,0.76,4.83,3.53,4.83,5.1c0.01,5.07-4.8,6.76-9.07,6.78c-4.49,0.01-9.09-1.47-9.29-6.76L341.85,72.04z"/>
</g>
</svg>

