<?xml version="1.0" encoding="utf-8"?>
<!-- Generator: Adobe Illustrator 19.2.1, SVG Export Plug-In . SVG Version: 6.00 Build 0)  -->
<svg version="1.1" id="layer" xmlns="http://www.w3.org/2000/svg" xmlns:xlink="http://www.w3.org/1999/xlink" x="0px" y="0px"
	 viewBox="0 90 652 460" style="enable-background:new 0 0 652 550;" xml:space="preserve">
<style type="text/css">
	.st0{fill:#0032A0;}
	.st1{fill:#FFFFFF;}
</style>
<g>
	<path class="st0" d="M587.4,376.4c-20.3-82.6-27.2-126.8-50.1-155.4c-12.3-15.4-51.3-67.6-215.2-42.8c-105.5,15.9-29-66-142.7-58.6
		c-75.8,4.9-164.5,33.8-164.5,33.8S47.2,170,69.4,298.5c24,138.6,4.8,198.8,4.8,198.8c26.7-9.9,74.4-23.9,137-26.3
		c113.8-4.4-2.1,83.6,100.7,54.4c245.7-69.8,323.9-2.1,326.4-5.4C640.9,516.7,619,504.7,587.4,376.4"/>
	<path class="st1" d="M310.6,308.8c-10.9,0-20.2,4.3-20.7,16.7h8c0.4-7.3,5.4-9.5,12.2-9.5c5.1,0,10.9,1.2,10.9,8.3
		c0,6.2-7.6,5.6-16.5,7.4c-8.3,1.6-16.5,4-16.5,15.3c0,9.3,7.3,13.6,16.2,13.6c7.3,0,12-1.9,16.7-6.8v6h8v-36.5
		C328.9,311.6,319.4,308.8,310.6,308.8"/>
	<path class="st0" d="M320.9,342.2c0,4.8-4.3,11.5-14.9,11.5c-4.9,0-9.4-2.6-9.4-7.3c0-6.1,4.5-8,9.8-9c5.4-1,11.4-1.1,14.6-3.4
		V342.2z"/>
	<path class="st1" d="M274.3,295.1h-8.2V310h-8.4v7.2h8.4v31.9c0,9.3,6.5,11,11.6,11c5.1,0,6.4-0.4,6.4-0.4v-7.3
		c-2.6,0.1-3.7,0.1-3.7,0.1c-5.1,0-6.1-1.1-6.1-5.2v-30.2h9.9V310h-9.9V295.1z"/>
</g>
<polygon class="st1" points="93.3,309.9 109.8,309.9 109.8,359.3 114.8,359.3 114.8,309.9 131.5,309.9 131.5,305.6 93.3,305.6 "/>
<g>
	<path class="st1" d="M184.1,319.3c-12.1,0-17.2,10.3-17.2,20.5c0,11.1,5.1,20.6,17.2,20.6c9.6,0,14.6-5.1,16.6-13.9H196
		c-1.5,5.9-5.1,9.9-11.9,9.9c-8.9,0-12.5-8.4-12.5-15.3h29.3C201.2,330.3,196.4,319.3,184.1,319.3"/>
	<path class="st0" d="M184.1,323.3c7.5,0,11.9,6.7,12.1,13.9h-24.6C172.3,330.1,176.5,323.3,184.1,323.3"/>
	<path class="st1" d="M236.3,320.9c-10.9-2.5-21.6-3.8-21.6-12.3c0-9,7.5-11.7,15.1-11.7c8.9,0,15.2,4,16.6,13.1h8.6
		c-1-14.5-11.3-20.8-24.8-20.8c-12.3,0-24.5,6.2-24.5,20.2c0,12.6,10.9,15.8,21.6,18.2c10.8,2.4,21.5,4.1,21.5,13.5
		c0,10-9,12.5-17.1,12.5c-10.2,0-17.7-4.7-19.3-12.9h-8.6c1.7,13.4,12.5,20.7,27.7,20.7c12.3,0,26.4-5.9,26.4-20.5
		C257.9,327.3,247.1,323.4,236.3,320.9"/>
	<path class="st1" d="M150.4,319.3c-5.4,0-10.5,3.2-12.2,7.8h-0.1v-21.6h-4.6v53.7h4.6v-22.7c0.1-7.6,4.6-13.3,11.9-13.3
		c7.5,0,9.7,5,9.7,11.7v24.2h4.6v-25C164.4,325.1,161.1,319.3,150.4,319.3"/>
	<path class="st1" d="M503.1,308.9c-8.4-0.7-14,2.2-17.9,10.2H485v-9.2h-7.5v49.9h8v-22.9c0-12.6,4.7-19.8,17.6-19.8V308.9z"/>
	<path class="st1" d="M540.5,316.6h-0.2c-3.6-5.9-10.8-7.8-15.8-7.8c-14.9,0-22.3,11.9-22.3,26c0,14.1,7.7,26,22.7,26
		c6.7,0,12.8-2.2,15.4-7.7h0.2v6.7h8v-68.9h-8V316.6z"/>
	<path class="st0" d="M526.1,353.5c-10.4,0-15.3-8.9-15.3-18.2c0-9.7,3.7-19.3,14.6-19.3c11.1,0,15.4,9.1,15.4,18.9
		C540.8,344.3,536.9,353.5,526.1,353.5"/>
	<path class="st1" d="M358.5,308.8c-7,0-12.5,2.9-15.9,9.1h-0.2V310h-7.5v49.8h8v-28.1c0-9,4.7-15.6,14.5-15.6c6.2,0,9.9,4,9.9,10
		v33.7h8V327C375.3,316.3,371.4,308.8,358.5,308.8"/>
	<path class="st1" d="M417.9,316.6h-0.2c-3.6-5.9-10.8-7.8-15.8-7.8c-14.9,0-22.3,11.9-22.3,26c0,14.1,7.7,26,22.7,26
		c6.7,0,12.8-2.2,15.4-7.7h0.2v6.7h8v-68.9h-8V316.6z"/>
	<path class="st0" d="M403.4,353.5c-10.4,0-15.4-8.9-15.4-18.2c0-9.7,3.7-19.3,14.7-19.3c11.1,0,15.4,9.1,15.4,18.9
		C418.2,344.3,414.2,353.5,403.4,353.5"/>
	<path class="st1" d="M453.2,308.8c-10.9,0-20.2,4.3-20.7,16.7h8.1c0.4-7.3,5.4-9.5,12.2-9.5c5.1,0,10.9,1.2,10.9,8.3
		c0,6.2-7.6,5.6-16.5,7.4c-8.3,1.6-16.5,4-16.5,15.3c0,9.3,7.3,13.6,16.2,13.6c7.3,0,12-1.9,16.7-6.8v6h8v-36.5
		C471.5,311.6,462,308.8,453.2,308.8"/>
	<path class="st0" d="M463.5,342.2c0,4.8-4.4,11.5-14.9,11.5c-4.9,0-9.5-2.6-9.5-7.3c0-6.1,4.5-8,9.8-9c5.4-1,11.4-1.1,14.6-3.4
		V342.2z"/>
	<path class="st0" d="M591.1,290.9c-6.9,0-12.8,5.3-12.8,13.3c0,7.6,5.3,13.3,12.8,13.3c6.8,0,12.7-5.3,12.7-13.3
		C603.8,296.2,597.8,290.9,591.1,290.9"/>
	<path class="st1" d="M591.1,315.1c-6.2,0-10-4.9-10-11c0-6.4,4.4-10.9,10-10.9c5.6,0,9.9,4.5,9.9,10.9
		C601,310.7,596.6,315.1,591.1,315.1"/>
	<path class="st0" d="M596.8,301.3c0-3-1.8-4.2-5.3-4.2h-5.5v14.7h2.4v-6.3h2.2l3.7,6.3h2.7l-4.1-6.4
		C595.2,305,596.8,303.9,596.8,301.3"/>
	<path class="st1" d="M588.5,303.4v-4.3h2.8c1.4,0,3.1,0.2,3.1,2c0,2.1-1.6,2.3-3.3,2.3H588.5z"/>
</g>
</svg>
